# This file uses centimeters as units for non-parametric coordinates.

mtllib background_geo.mtl
g default
v -503.400790 -187.608917 -549.628052
v 502.046262 -187.608917 -549.628052
v -503.400851 820.042969 -549.628052
v 502.046292 820.042969 -549.628052
v -1.779678 -187.608917 -549.628052
v -503.400790 -187.608917 -46.274517
v 502.046231 -187.608917 -46.274517
v 502.046231 -187.608917 -549.628052
vt 0.539779 0.535100
vt 0.996290 0.535100
vt 0.539779 0.991610
vt 0.996290 0.991610
vt 0.862971 0.535100
vt 0.002093 0.531945
vt 0.467728 0.531945
vt 0.002093 0.997580
vt 0.234910 0.997580
vt 0.467728 0.997580
vn 0.000000 0.000000 1.000000
vn 0.000000 0.000000 1.000000
vn 0.000000 0.000000 1.000000
vn 0.000000 0.000000 1.000000
vn 0.000000 0.000000 1.000000
vn 0.000000 1.000000 0.000000
vn 0.000000 1.000000 0.000000
vn 0.000000 1.000000 0.000000
vn 0.000000 1.000000 0.000000
vn 0.000000 1.000000 0.000000
s 1
g background_plane
usemtl lambert6SG
f 1/1/1 4/4/2 3/3/3
f 5/5/4 2/2/5 4/4/2 1/1/1
s 2
f 6/6/6 7/7/7 1/8/8
f 5/9/9 1/8/8 7/7/7 8/10/10
